<?xml version="1.0" encoding="UTF-8"?> <svg xmlns="http://www.w3.org/2000/svg" xmlns:xlink="http://www.w3.org/1999/xlink" width="404" zoomAndPan="magnify" viewBox="0 0 303 60" height="80" preserveAspectRatio="xMidYMid meet" version="1.0"><defs><g></g><clipPath id="80ee0bbc3e"><path d="M 6 4.6875 L 40.5 4.6875 L 40.5 55.6875 L 6 55.6875 Z M 6 4.6875 " clip-rule="nonzero"></path></clipPath></defs><g fill="#000000" fill-opacity="1"><g transform="translate(44.095882, 43.875)"><g><path d="M 4.1875 -14.8125 L 5.6875 -29.546875 L 20.828125 -29.546875 L 20.828125 -26.078125 L 8.875 -26.078125 L 7.96875 -18.015625 C 9.414062 -18.867188 11.0625 -19.296875 12.90625 -19.296875 C 15.601562 -19.296875 17.738281 -18.40625 19.3125 -16.625 C 20.894531 -14.851562 21.6875 -12.453125 21.6875 -9.421875 C 21.6875 -6.367188 20.863281 -3.96875 19.21875 -2.21875 C 17.582031 -0.46875 15.289062 0.40625 12.34375 0.40625 C 9.726562 0.40625 7.59375 -0.316406 5.9375 -1.765625 C 4.289062 -3.210938 3.351562 -5.210938 3.125 -7.765625 L 6.671875 -7.765625 C 6.898438 -6.078125 7.5 -4.800781 8.46875 -3.9375 C 9.445312 -3.082031 10.738281 -2.65625 12.34375 -2.65625 C 14.082031 -2.65625 15.445312 -3.25 16.4375 -4.4375 C 17.4375 -5.632812 17.9375 -7.28125 17.9375 -9.375 C 17.9375 -11.351562 17.398438 -12.941406 16.328125 -14.140625 C 15.253906 -15.335938 13.820312 -15.9375 12.03125 -15.9375 C 10.394531 -15.9375 9.109375 -15.578125 8.171875 -14.859375 L 7.1875 -14.046875 Z M 4.1875 -14.8125 "></path></g></g></g><g fill="#000000" fill-opacity="1"><g transform="translate(63.273372, 43.875)"><g></g></g></g><g fill="#000000" fill-opacity="1"><g transform="translate(69.404152, 43.875)"><g><path d="M 6.375 -21.953125 L 6.46875 -19.515625 C 8.082031 -21.410156 10.253906 -22.359375 12.984375 -22.359375 C 16.054688 -22.359375 18.148438 -21.179688 19.265625 -18.828125 C 19.992188 -19.890625 20.941406 -20.742188 22.109375 -21.390625 C 23.273438 -22.035156 24.660156 -22.359375 26.265625 -22.359375 C 31.078125 -22.359375 33.523438 -19.8125 33.609375 -14.71875 L 33.609375 0 L 29.859375 0 L 29.859375 -14.484375 C 29.859375 -16.054688 29.5 -17.226562 28.78125 -18 C 28.0625 -18.78125 26.859375 -19.171875 25.171875 -19.171875 C 23.773438 -19.171875 22.613281 -18.753906 21.6875 -17.921875 C 20.769531 -17.097656 20.238281 -15.984375 20.09375 -14.578125 L 20.09375 0 L 16.3125 0 L 16.3125 -14.390625 C 16.3125 -17.578125 14.75 -19.171875 11.625 -19.171875 C 9.164062 -19.171875 7.484375 -18.125 6.578125 -16.03125 L 6.578125 0 L 2.828125 0 L 2.828125 -21.953125 Z M 6.375 -21.953125 "></path></g></g></g><g fill="#000000" fill-opacity="1"><g transform="translate(101.668931, 43.875)"><g><path d="M 6.921875 0 L 3.171875 0 L 3.171875 -21.953125 L 6.921875 -21.953125 Z M 2.859375 -27.78125 C 2.859375 -28.394531 3.046875 -28.910156 3.421875 -29.328125 C 3.796875 -29.742188 4.347656 -29.953125 5.078125 -29.953125 C 5.804688 -29.953125 6.359375 -29.742188 6.734375 -29.328125 C 7.117188 -28.910156 7.3125 -28.394531 7.3125 -27.78125 C 7.3125 -27.175781 7.117188 -26.671875 6.734375 -26.265625 C 6.359375 -25.859375 5.804688 -25.65625 5.078125 -25.65625 C 4.347656 -25.65625 3.796875 -25.859375 3.421875 -26.265625 C 3.046875 -26.671875 2.859375 -27.175781 2.859375 -27.78125 Z M 2.859375 -27.78125 "></path></g></g></g><g fill="#000000" fill-opacity="1"><g transform="translate(107.596805, 43.875)"><g><path d="M 6.921875 0 L 3.171875 0 L 3.171875 -31.171875 L 6.921875 -31.171875 Z M 6.921875 0 "></path></g></g></g><g fill="#000000" fill-opacity="1"><g transform="translate(113.524678, 43.875)"><g></g></g></g><g fill="#000000" fill-opacity="1"><g transform="translate(119.658379, 43.875)"><g><path d="M 25.65625 -8.53125 L 29.625 -29.546875 L 35.703125 -29.546875 L 29.140625 0 L 23.015625 0 L 18.203125 -19.765625 L 13.390625 0 L 7.265625 0 L 0.703125 -29.546875 L 6.78125 -29.546875 L 10.78125 -8.5625 L 15.640625 -29.546875 L 20.796875 -29.546875 Z M 25.65625 -8.53125 "></path></g></g></g><g fill="#000000" fill-opacity="1"><g transform="translate(151.841999, 43.875)"><g><path d="M 14.984375 0 C 14.710938 -0.53125 14.515625 -1.1875 14.390625 -1.96875 C 12.960938 -0.382812 11.113281 0.40625 8.84375 0.40625 C 6.695312 0.40625 4.914062 -0.210938 3.5 -1.453125 C 2.082031 -2.703125 1.375 -4.273438 1.375 -6.171875 C 1.375 -8.492188 2.238281 -10.273438 3.96875 -11.515625 C 5.695312 -12.765625 8.191406 -13.398438 11.453125 -13.421875 L 14.140625 -13.421875 L 14.140625 -14.671875 C 14.140625 -15.679688 13.878906 -16.488281 13.359375 -17.09375 C 12.835938 -17.707031 12.015625 -18.015625 10.890625 -18.015625 C 9.910156 -18.015625 9.140625 -17.773438 8.578125 -17.296875 C 8.015625 -16.828125 7.734375 -16.179688 7.734375 -15.359375 L 1.859375 -15.359375 C 1.859375 -16.628906 2.25 -17.804688 3.03125 -18.890625 C 3.820312 -19.972656 4.9375 -20.820312 6.375 -21.4375 C 7.8125 -22.050781 9.421875 -22.359375 11.203125 -22.359375 C 13.910156 -22.359375 16.054688 -21.675781 17.640625 -20.3125 C 19.234375 -18.957031 20.03125 -17.050781 20.03125 -14.59375 L 20.03125 -5.078125 C 20.039062 -2.992188 20.332031 -1.414062 20.90625 -0.34375 L 20.90625 0 Z M 10.125 -4.078125 C 10.988281 -4.078125 11.785156 -4.269531 12.515625 -4.65625 C 13.253906 -5.039062 13.796875 -5.554688 14.140625 -6.203125 L 14.140625 -9.984375 L 11.953125 -9.984375 C 9.015625 -9.984375 7.453125 -8.96875 7.265625 -6.9375 L 7.25 -6.59375 C 7.25 -5.863281 7.503906 -5.257812 8.015625 -4.78125 C 8.523438 -4.3125 9.226562 -4.078125 10.125 -4.078125 Z M 10.125 -4.078125 "></path></g></g></g><g fill="#000000" fill-opacity="1"><g transform="translate(169.96439, 43.875)"><g><path d="M 14.59375 -16.453125 C 13.789062 -16.566406 13.085938 -16.625 12.484375 -16.625 C 10.265625 -16.625 8.8125 -15.875 8.125 -14.375 L 8.125 0 L 2.25 0 L 2.25 -21.953125 L 7.796875 -21.953125 L 7.953125 -19.34375 C 9.128906 -21.351562 10.757812 -22.359375 12.84375 -22.359375 C 13.5 -22.359375 14.109375 -22.269531 14.671875 -22.09375 Z M 14.59375 -16.453125 "></path></g></g></g><g fill="#000000" fill-opacity="1"><g transform="translate(180.964857, 43.875)"><g><path d="M 14.140625 -6.0625 C 14.140625 -6.78125 13.785156 -7.34375 13.078125 -7.75 C 12.367188 -8.164062 11.226562 -8.539062 9.65625 -8.875 C 4.4375 -9.96875 1.828125 -12.1875 1.828125 -15.53125 C 1.828125 -17.476562 2.632812 -19.101562 4.25 -20.40625 C 5.863281 -21.707031 7.976562 -22.359375 10.59375 -22.359375 C 13.382812 -22.359375 15.613281 -21.703125 17.28125 -20.390625 C 18.945312 -19.078125 19.78125 -17.375 19.78125 -15.28125 L 13.921875 -15.28125 C 13.921875 -16.125 13.648438 -16.816406 13.109375 -17.359375 C 12.566406 -17.910156 11.722656 -18.1875 10.578125 -18.1875 C 9.585938 -18.1875 8.820312 -17.960938 8.28125 -17.515625 C 7.738281 -17.066406 7.46875 -16.5 7.46875 -15.8125 C 7.46875 -15.15625 7.773438 -14.628906 8.390625 -14.234375 C 9.003906 -13.835938 10.039062 -13.492188 11.5 -13.203125 C 12.96875 -12.910156 14.203125 -12.582031 15.203125 -12.21875 C 18.296875 -11.082031 19.84375 -9.113281 19.84375 -6.3125 C 19.84375 -4.3125 18.984375 -2.691406 17.265625 -1.453125 C 15.546875 -0.210938 13.328125 0.40625 10.609375 0.40625 C 8.773438 0.40625 7.144531 0.078125 5.71875 -0.578125 C 4.289062 -1.234375 3.171875 -2.132812 2.359375 -3.28125 C 1.546875 -4.425781 1.140625 -5.660156 1.140625 -6.984375 L 6.703125 -6.984375 C 6.753906 -5.941406 7.132812 -5.140625 7.84375 -4.578125 C 8.5625 -4.023438 9.523438 -3.75 10.734375 -3.75 C 11.859375 -3.75 12.707031 -3.960938 13.28125 -4.390625 C 13.851562 -4.816406 14.140625 -5.375 14.140625 -6.0625 Z M 14.140625 -6.0625 "></path></g></g></g><g fill="#000000" fill-opacity="1"><g transform="translate(198.174184, 43.875)"><g><path d="M 8.984375 -4.734375 L 19.71875 -4.734375 L 19.71875 0 L 1.5 0 L 1.5 -3.578125 L 11.828125 -17.203125 L 1.8125 -17.203125 L 1.8125 -21.953125 L 19.40625 -21.953125 L 19.40625 -18.484375 Z M 8.984375 -4.734375 "></path></g></g></g><g fill="#000000" fill-opacity="1"><g transform="translate(215.160316, 43.875)"><g><path d="M 14.984375 0 C 14.710938 -0.53125 14.515625 -1.1875 14.390625 -1.96875 C 12.960938 -0.382812 11.113281 0.40625 8.84375 0.40625 C 6.695312 0.40625 4.914062 -0.210938 3.5 -1.453125 C 2.082031 -2.703125 1.375 -4.273438 1.375 -6.171875 C 1.375 -8.492188 2.238281 -10.273438 3.96875 -11.515625 C 5.695312 -12.765625 8.191406 -13.398438 11.453125 -13.421875 L 14.140625 -13.421875 L 14.140625 -14.671875 C 14.140625 -15.679688 13.878906 -16.488281 13.359375 -17.09375 C 12.835938 -17.707031 12.015625 -18.015625 10.890625 -18.015625 C 9.910156 -18.015625 9.140625 -17.773438 8.578125 -17.296875 C 8.015625 -16.828125 7.734375 -16.179688 7.734375 -15.359375 L 1.859375 -15.359375 C 1.859375 -16.628906 2.25 -17.804688 3.03125 -18.890625 C 3.820312 -19.972656 4.9375 -20.820312 6.375 -21.4375 C 7.8125 -22.050781 9.421875 -22.359375 11.203125 -22.359375 C 13.910156 -22.359375 16.054688 -21.675781 17.640625 -20.3125 C 19.234375 -18.957031 20.03125 -17.050781 20.03125 -14.59375 L 20.03125 -5.078125 C 20.039062 -2.992188 20.332031 -1.414062 20.90625 -0.34375 L 20.90625 0 Z M 10.125 -4.078125 C 10.988281 -4.078125 11.785156 -4.269531 12.515625 -4.65625 C 13.253906 -5.039062 13.796875 -5.554688 14.140625 -6.203125 L 14.140625 -9.984375 L 11.953125 -9.984375 C 9.015625 -9.984375 7.453125 -8.96875 7.265625 -6.9375 L 7.25 -6.59375 C 7.25 -5.863281 7.503906 -5.257812 8.015625 -4.78125 C 8.523438 -4.3125 9.226562 -4.078125 10.125 -4.078125 Z M 10.125 -4.078125 "></path></g></g></g><g fill="#000000" fill-opacity="1"><g transform="translate(233.28271, 43.875)"><g><path d="M 21.34375 -7.96875 L 24.234375 -21.953125 L 29.890625 -21.953125 L 24.296875 0 L 19.375 0 L 15.21875 -13.828125 L 11.0625 0 L 6.171875 0 L 0.5625 -21.953125 L 6.234375 -21.953125 L 9.09375 -8 L 13.109375 -21.953125 L 17.34375 -21.953125 Z M 21.34375 -7.96875 "></path></g></g></g><g fill="#000000" fill-opacity="1"><g transform="translate(259.663286, 43.875)"><g><path d="M 10.453125 -8.296875 L 14.515625 -21.953125 L 20.796875 -21.953125 L 11.96875 3.40625 L 11.484375 4.5625 C 10.171875 7.4375 8.007812 8.875 5 8.875 C 4.144531 8.875 3.273438 8.742188 2.390625 8.484375 L 2.390625 4.03125 L 3.28125 4.0625 C 4.394531 4.0625 5.222656 3.890625 5.765625 3.546875 C 6.316406 3.210938 6.75 2.648438 7.0625 1.859375 L 7.75 0.0625 L 0.0625 -21.953125 L 6.375 -21.953125 Z M 10.453125 -8.296875 "></path></g></g></g><g clip-path="url(#80ee0bbc3e)"><path fill="#000000" d="M 13.808594 27.53125 C 13.84375 26.691406 13.953125 26.027344 14.023438 25.574219 C 14.152344 24.78125 14.339844 23.953125 14.398438 23.695312 C 14.550781 23 14.621094 22.773438 14.691406 22.265625 C 14.769531 21.703125 14.742188 21.5625 14.785156 21.082031 C 14.871094 20.171875 15.019531 20.148438 15.34375 18.652344 C 15.59375 17.503906 15.585938 17.164062 15.925781 16.925781 C 16.066406 16.832031 16.152344 16.828125 16.789062 16.527344 C 17.113281 16.375 17.324219 16.265625 17.449219 16.203125 C 18.78125 15.527344 19.789062 15.34375 21.167969 14.488281 C 21.34375 14.378906 21.6875 14.15625 22.371094 13.710938 C 23.105469 13.230469 23.347656 13.066406 23.757812 12.960938 C 24.289062 12.828125 24.25 13.007812 24.824219 12.875 C 25.699219 12.671875 25.773438 12.253906 26.464844 12.175781 C 26.570312 12.160156 26.839844 12.140625 26.964844 11.949219 C 27.015625 11.871094 27.023438 11.796875 27.035156 11.667969 C 27.074219 11.203125 27.09375 10.972656 27.09375 10.964844 C 27.085938 10.421875 26.441406 9.546875 26.226562 9.039062 C 25.792969 8.015625 26.230469 6.425781 27.28125 5.589844 C 28.40625 4.695312 29.777344 5.023438 30.3125 5.152344 C 30.636719 5.230469 31.515625 5.441406 31.585938 5.933594 C 31.617188 6.128906 31.507812 6.3125 31.40625 6.441406 C 31.636719 6.59375 31.785156 6.75 31.871094 6.851562 C 32.257812 7.3125 32.546875 8.070312 32.296875 8.625 C 32.230469 8.769531 32.191406 8.761719 32.179688 8.859375 C 32.125 9.253906 32.765625 9.515625 32.785156 10.019531 C 32.785156 10.074219 32.789062 10.164062 32.730469 10.238281 C 32.625 10.378906 32.4375 10.289062 32.347656 10.40625 C 32.246094 10.542969 32.429688 10.742188 32.308594 10.914062 C 32.253906 10.996094 32.195312 10.976562 32.152344 11.070312 C 32.105469 11.171875 32.15625 11.238281 32.121094 11.363281 C 32.09375 11.472656 32.027344 11.527344 31.984375 11.574219 C 31.765625 11.835938 31.980469 12.167969 31.8125 12.421875 C 31.679688 12.617188 31.484375 12.507812 30.949219 12.730469 C 30.691406 12.839844 30.339844 12.988281 30.328125 13.183594 C 30.316406 13.375 30.632812 13.492188 30.96875 13.699219 C 31.171875 13.820312 32.292969 14.503906 32.597656 15.496094 C 32.757812 16.023438 32.703125 16.695312 32.921875 16.734375 C 32.980469 16.742188 33.019531 16.699219 33.070312 16.726562 C 33.207031 16.804688 33.035156 17.15625 33.199219 17.421875 C 33.273438 17.546875 33.386719 17.59375 33.457031 17.632812 C 33.996094 17.925781 34.292969 18.824219 34.460938 19.347656 C 34.742188 20.199219 34.664062 20.570312 34.84375 20.609375 C 35.003906 20.644531 35.277344 20.207031 35.820312 19.328125 C 36.261719 18.621094 35.992188 18.972656 36.503906 18.0625 C 36.585938 17.917969 36.722656 17.679688 36.761719 17.339844 C 36.789062 17.140625 36.769531 17 36.761719 16.917969 C 36.707031 16.269531 37.078125 16.007812 37.230469 15.191406 C 37.359375 14.484375 37.203125 14.03125 37.363281 13.984375 C 37.492188 13.941406 37.6875 14.21875 37.757812 14.339844 C 38.011719 14.78125 37.890625 15.257812 37.851562 15.390625 C 38.144531 15.023438 38.421875 14.746094 38.636719 14.550781 C 38.964844 14.253906 39.46875 13.800781 39.675781 13.929688 C 39.746094 13.976562 39.765625 14.085938 39.769531 14.183594 C 39.894531 14.066406 40.0625 14.046875 40.15625 14.113281 C 40.269531 14.199219 40.296875 14.449219 40.121094 14.625 C 40.15625 14.632812 40.285156 14.65625 40.367188 14.773438 C 40.464844 14.910156 40.457031 15.117188 40.335938 15.277344 C 40.34375 15.277344 40.453125 15.316406 40.484375 15.433594 C 40.503906 15.515625 40.472656 15.601562 40.410156 15.65625 C 40.242188 15.832031 40.007812 16.113281 39.820312 16.507812 C 39.746094 16.664062 39.710938 16.769531 39.683594 16.84375 C 39.4375 17.511719 38.839844 17.832031 38.421875 18.253906 C 38.078125 18.597656 37.984375 18.878906 37.585938 19.816406 C 35.699219 24.28125 35.089844 24.421875 34.867188 24.40625 C 34.679688 24.390625 34.28125 24.226562 33.988281 24.058594 C 33.757812 23.929688 33.671875 23.84375 33.632812 23.804688 C 33.398438 23.550781 33.34375 23.253906 33.3125 23.121094 C 33.285156 23 33.054688 22.605469 32.597656 21.816406 C 31.636719 20.164062 31.429688 19.847656 31.28125 19.894531 C 31.199219 19.917969 31.167969 20.046875 31.15625 20.09375 C 30.816406 21.519531 30.140625 21.304688 29.28125 25.863281 C 28.871094 28.054688 29.042969 28.007812 28.742188 28.683594 C 28.367188 29.539062 27.703125 30.476562 28.039062 30.882812 C 28.0625 30.914062 28.082031 30.925781 28.234375 31.027344 C 28.878906 31.449219 29.203125 31.660156 29.273438 31.703125 C 29.625 31.914062 30.945312 33.433594 34.425781 37.976562 C 34.640625 38.253906 34.9375 38.675781 34.9375 39.242188 C 34.941406 39.785156 34.660156 40.019531 34.472656 40.757812 C 34.347656 41.253906 34.355469 41.609375 34.359375 42.175781 C 34.371094 43.707031 34.324219 45.234375 34.339844 46.761719 C 34.355469 48.542969 34.359375 49.242188 34.730469 50.199219 C 34.878906 50.582031 35.039062 50.882812 35.15625 51.082031 C 35.21875 51.054688 35.394531 50.980469 35.589844 51.042969 C 35.847656 51.121094 36.03125 51.394531 36.035156 51.71875 C 36.125 51.726562 36.335938 51.757812 36.542969 51.914062 C 36.753906 52.070312 36.84375 52.265625 36.878906 52.347656 C 37.15625 52.523438 37.535156 52.722656 38.011719 52.871094 C 38.617188 53.058594 39.148438 53.09375 39.519531 53.085938 C 39.789062 53.09375 40.03125 53.246094 40.128906 53.472656 C 40.261719 53.777344 40.117188 54.191406 39.757812 54.375 C 39.496094 54.558594 39.101562 54.808594 38.585938 55.039062 C 38.304688 55.164062 37.277344 55.59375 34.78125 55.660156 C 34.109375 55.675781 33.203125 55.671875 32.128906 55.574219 C 31.828125 55.484375 31.65625 55.210938 31.695312 54.964844 C 31.734375 54.730469 31.957031 54.613281 31.984375 54.597656 C 31.988281 54.519531 31.996094 54.433594 32.015625 54.34375 C 32.097656 53.992188 32.308594 53.761719 32.429688 53.648438 C 32.214844 53.386719 32.15625 53.046875 32.28125 52.777344 C 32.363281 52.59375 32.511719 52.496094 32.585938 52.453125 C 32.601562 52.125 32.609375 51.652344 32.566406 51.085938 C 32.484375 50.03125 32.273438 49.257812 32.058594 48.496094 C 31.007812 44.820312 30.792969 44.988281 30.84375 44.175781 C 30.988281 41.898438 31.0625 41.589844 31.0625 41.589844 C 31.105469 41.421875 31.210938 41.027344 31.066406 40.589844 C 30.933594 40.1875 30.652344 39.949219 30.515625 39.832031 C 29.3125 38.828125 27.976562 37.960938 27.976562 37.960938 C 26.214844 36.816406 26.109375 36.699219 25.996094 36.519531 C 25.894531 36.355469 25.664062 35.949219 25.4375 35.984375 C 25.265625 36.011719 25.175781 36.269531 25.152344 36.339844 C 24.808594 37.265625 23.4375 38.015625 22.171875 39.945312 C 21.136719 41.53125 21.234375 42.289062 20.214844 42.847656 C 19.839844 43.054688 19.699219 43.019531 18.972656 43.230469 C 18.328125 43.417969 17.796875 43.628906 15.789062 44.660156 C 13.753906 45.703125 12.738281 46.226562 12.152344 46.648438 C 11.167969 47.363281 10.449219 48.082031 9.980469 48.59375 C 10.121094 48.703125 10.496094 49.019531 10.421875 49.203125 C 10.40625 49.25 10.363281 49.273438 10.183594 49.371094 C 10.050781 49.445312 9.921875 49.53125 9.78125 49.601562 C 9.511719 49.738281 9.089844 50.230469 8.808594 50.738281 C 8.28125 51.679688 8.210938 52.691406 8.203125 53.125 C 8.230469 53.386719 8.132812 53.644531 7.9375 53.789062 C 7.667969 53.984375 7.25 53.9375 6.984375 53.640625 C 6.878906 53.480469 6.734375 53.246094 6.589844 52.945312 C 6.0625 51.835938 6.03125 50.828125 6.019531 49.980469 C 6 48.277344 6.058594 46.730469 6.144531 45.402344 C 6.160156 45.285156 6.203125 45.136719 6.3125 45.089844 C 6.453125 45.027344 6.550781 45.21875 6.851562 45.269531 C 7.144531 45.316406 7.347656 45.179688 7.441406 45.300781 C 7.488281 45.359375 7.457031 45.417969 7.511719 45.476562 C 7.601562 45.566406 7.773438 45.523438 7.832031 45.511719 C 8.292969 45.414062 8.613281 45.855469 9.171875 45.835938 C 9.3125 45.832031 9.511719 45.792969 9.875 45.5625 C 11.019531 44.835938 12.285156 43.144531 13.710938 41.945312 C 14.996094 40.863281 15.667969 40.292969 16.597656 40.191406 C 16.8125 40.167969 17.285156 40.144531 17.707031 39.808594 C 18.113281 39.488281 18.25 39.054688 18.390625 38.621094 C 18.882812 37.128906 19.128906 36.382812 19.449219 35.773438 C 19.933594 34.847656 20.175781 34.386719 20.648438 33.898438 C 20.765625 33.773438 20.945312 33.601562 21.074219 33.308594 C 21.339844 32.710938 21.179688 32.113281 21.132812 31.90625 C 20.722656 30.179688 21.15625 26.757812 22.152344 25.835938 C 22.257812 25.738281 22.632812 25.425781 22.679688 24.953125 C 22.707031 24.683594 22.613281 24.476562 22.585938 24.402344 C 22.226562 23.523438 22.003906 21.054688 22.25 19.148438 C 22.296875 18.800781 22.414062 18.023438 22.167969 17.914062 C 21.964844 17.824219 21.621094 18.238281 21.378906 18.09375 C 21.265625 18.027344 21.292969 17.902344 21.171875 17.816406 C 20.964844 17.664062 20.605469 17.84375 20.484375 17.898438 C 19.421875 18.402344 18.917969 18.058594 18.285156 18.570312 C 17.972656 18.824219 17.992188 18.992188 17.496094 20.171875 C 16.785156 21.867188 16.644531 21.765625 16.335938 22.734375 C 15.992188 23.832031 15.753906 24.585938 16.089844 25.300781 C 16.113281 25.355469 16.367188 25.730469 16.875 26.480469 C 17.46875 27.351562 17.449219 27.296875 17.46875 27.347656 C 17.511719 27.460938 17.574219 27.667969 17.761719 27.769531 C 17.890625 27.84375 18.007812 27.824219 18.023438 27.882812 C 18.042969 27.960938 17.855469 28.128906 17.675781 28.164062 C 17.117188 28.269531 16.679688 27.027344 16.296875 27.125 C 15.988281 27.203125 15.863281 28.105469 15.894531 28.722656 C 15.914062 29.070312 16 29.757812 15.839844 30.210938 C 15.808594 30.296875 15.738281 30.480469 15.605469 30.503906 C 15.53125 30.515625 15.464844 30.480469 15.425781 30.449219 C 15.402344 30.5625 15.316406 30.652344 15.21875 30.671875 C 15.082031 30.699219 14.929688 30.59375 14.898438 30.421875 C 14.875 30.433594 14.726562 30.511719 14.570312 30.449219 C 14.40625 30.382812 14.296875 30.195312 14.320312 29.984375 C 14.28125 30.003906 14.21875 30.03125 14.152344 30.011719 C 13.707031 29.902344 13.785156 28.066406 13.808594 27.53125 Z M 13.808594 27.53125 " fill-opacity="1" fill-rule="nonzero"></path></g></svg> 