<?xml version="1.0" encoding="UTF-8"?> <svg xmlns="http://www.w3.org/2000/svg" xmlns:xlink="http://www.w3.org/1999/xlink" width="256" zoomAndPan="magnify" viewBox="0 0 192 191.999996" height="256" preserveAspectRatio="xMidYMid meet" version="1.0"><defs><clipPath id="7400b99234"><path d="M 33.902344 6 L 158.402344 6 L 158.402344 186.300781 L 33.902344 186.300781 Z M 33.902344 6 " clip-rule="nonzero"></path></clipPath></defs><g clip-path="url(#7400b99234)"><path fill="#000000" d="M 62.082031 86.515625 C 62.214844 83.535156 62.597656 81.1875 62.863281 79.578125 C 63.328125 76.78125 64 73.839844 64.207031 72.921875 C 64.765625 70.460938 65.015625 69.660156 65.269531 67.859375 C 65.546875 65.867188 65.449219 65.359375 65.609375 63.660156 C 65.917969 60.445312 66.457031 60.355469 67.628906 55.050781 C 68.53125 50.980469 68.488281 49.777344 69.722656 48.9375 C 70.226562 48.597656 70.539062 48.589844 72.84375 47.519531 C 74.003906 46.980469 74.773438 46.589844 75.21875 46.367188 C 80.019531 43.984375 83.667969 43.332031 88.640625 40.292969 C 89.28125 39.90625 90.511719 39.117188 92.980469 37.539062 C 95.625 35.84375 96.503906 35.261719 97.988281 34.890625 C 99.898438 34.417969 99.761719 35.054688 101.832031 34.582031 C 105 33.859375 105.257812 32.382812 107.75 32.097656 C 108.136719 32.050781 109.109375 31.972656 109.558594 31.292969 C 109.738281 31.023438 109.765625 30.757812 109.804688 30.308594 C 109.957031 28.660156 110.03125 27.835938 110.03125 27.8125 C 109.992188 25.886719 107.667969 22.789062 106.890625 20.992188 C 105.324219 17.363281 106.910156 11.730469 110.703125 8.769531 C 114.761719 5.597656 119.703125 6.761719 121.632812 7.214844 C 122.804688 7.492188 125.976562 8.238281 126.238281 9.984375 C 126.34375 10.675781 125.957031 11.328125 125.585938 11.785156 C 126.414062 12.3125 126.953125 12.871094 127.269531 13.238281 C 128.652344 14.863281 129.703125 17.546875 128.804688 19.511719 C 128.566406 20.035156 128.421875 20 128.375 20.347656 C 128.183594 21.75 130.484375 22.679688 130.558594 24.457031 C 130.566406 24.65625 130.574219 24.976562 130.371094 25.238281 C 129.988281 25.734375 129.3125 25.417969 128.988281 25.835938 C 128.617188 26.3125 129.273438 27.015625 128.839844 27.632812 C 128.640625 27.921875 128.433594 27.859375 128.277344 28.183594 C 128.101562 28.550781 128.289062 28.785156 128.164062 29.226562 C 128.0625 29.605469 127.828125 29.804688 127.679688 29.972656 C 126.878906 30.894531 127.660156 32.078125 127.054688 32.96875 C 126.578125 33.664062 125.875 33.277344 123.941406 34.074219 C 123.003906 34.457031 121.734375 34.980469 121.695312 35.675781 C 121.65625 36.347656 122.792969 36.773438 124.015625 37.5 C 124.738281 37.933594 128.792969 40.347656 129.886719 43.875 C 130.460938 45.742188 130.273438 48.121094 131.050781 48.253906 C 131.269531 48.289062 131.410156 48.128906 131.597656 48.234375 C 132.078125 48.5 131.464844 49.746094 132.054688 50.691406 C 132.324219 51.132812 132.730469 51.300781 132.988281 51.4375 C 134.9375 52.476562 136 55.667969 136.613281 57.511719 C 137.621094 60.535156 137.347656 61.84375 138 61.984375 C 138.574219 62.109375 139.5625 60.558594 141.519531 57.457031 C 143.105469 54.9375 142.132812 56.191406 143.980469 52.96875 C 144.273438 52.457031 144.765625 51.605469 144.917969 50.394531 C 145.007812 49.699219 144.941406 49.195312 144.914062 48.90625 C 144.71875 46.613281 146.046875 45.6875 146.597656 42.792969 C 147.078125 40.277344 146.511719 38.683594 147.085938 38.507812 C 147.554688 38.363281 148.25 39.34375 148.503906 39.773438 C 149.429688 41.332031 148.984375 43.027344 148.84375 43.5 C 149.898438 42.195312 150.902344 41.214844 151.683594 40.519531 C 152.867188 39.46875 154.679688 37.855469 155.425781 38.320312 C 155.6875 38.488281 155.753906 38.878906 155.761719 39.214844 C 156.222656 38.804688 156.828125 38.734375 157.160156 38.972656 C 157.578125 39.277344 157.671875 40.164062 157.03125 40.78125 C 157.164062 40.804688 157.632812 40.898438 157.929688 41.304688 C 158.28125 41.789062 158.25 42.519531 157.816406 43.09375 C 157.839844 43.101562 158.242188 43.238281 158.339844 43.652344 C 158.410156 43.9375 158.308594 44.242188 158.078125 44.433594 C 157.464844 45.058594 156.621094 46.050781 155.949219 47.453125 C 155.683594 48.011719 155.5625 48.386719 155.460938 48.644531 C 154.570312 51.003906 152.414062 52.152344 150.902344 53.640625 C 149.65625 54.863281 149.320312 55.855469 147.886719 59.183594 C 141.082031 75.007812 138.875 75.5 138.078125 75.441406 C 137.398438 75.390625 135.964844 74.808594 134.898438 74.210938 C 134.074219 73.75 133.761719 73.449219 133.628906 73.308594 C 132.773438 72.417969 132.574219 71.355469 132.46875 70.894531 C 132.367188 70.46875 131.539062 69.0625 129.886719 66.273438 C 126.414062 60.40625 125.671875 59.292969 125.136719 59.453125 C 124.839844 59.542969 124.730469 59.996094 124.6875 60.160156 C 123.457031 65.214844 121.023438 64.449219 117.921875 80.609375 C 116.433594 88.375 117.058594 88.207031 115.976562 90.609375 C 114.617188 93.628906 112.222656 96.953125 113.433594 98.398438 C 113.527344 98.507812 113.59375 98.554688 114.140625 98.90625 C 116.46875 100.40625 117.628906 101.15625 117.882812 101.304688 C 119.164062 102.050781 123.925781 107.433594 136.488281 123.535156 C 137.253906 124.511719 138.332031 126.019531 138.335938 128.023438 C 138.339844 129.941406 137.328125 130.78125 136.652344 133.390625 C 136.195312 135.148438 136.226562 136.414062 136.242188 138.421875 C 136.277344 143.835938 136.109375 149.253906 136.167969 154.667969 C 136.234375 160.980469 136.238281 163.457031 137.585938 166.855469 C 138.121094 168.207031 138.699219 169.273438 139.117188 169.984375 C 139.339844 169.882812 139.976562 169.621094 140.6875 169.835938 C 141.609375 170.117188 142.273438 171.078125 142.296875 172.234375 C 142.621094 172.261719 143.378906 172.378906 144.128906 172.929688 C 144.878906 173.480469 145.214844 174.167969 145.335938 174.46875 C 146.332031 175.085938 147.703125 175.796875 149.421875 176.320312 C 151.601562 176.988281 153.519531 177.101562 154.859375 177.078125 C 155.839844 177.109375 156.710938 177.644531 157.066406 178.445312 C 157.546875 179.535156 157.019531 180.996094 155.71875 181.652344 C 154.78125 182.296875 153.351562 183.191406 151.492188 184 C 150.476562 184.4375 146.773438 185.964844 137.769531 186.195312 C 135.347656 186.257812 132.074219 186.238281 128.195312 185.902344 C 127.113281 185.574219 126.484375 184.605469 126.628906 183.738281 C 126.769531 182.90625 127.574219 182.484375 127.675781 182.433594 C 127.683594 182.164062 127.714844 181.863281 127.789062 181.539062 C 128.078125 180.296875 128.84375 179.476562 129.285156 179.078125 C 128.511719 178.140625 128.292969 176.9375 128.738281 175.984375 C 129.042969 175.335938 129.570312 174.984375 129.84375 174.832031 C 129.898438 173.675781 129.925781 172 129.769531 169.988281 C 129.480469 166.257812 128.722656 163.507812 127.9375 160.820312 C 124.152344 147.792969 123.375 148.378906 123.558594 145.503906 C 124.074219 137.425781 124.347656 136.335938 124.347656 136.335938 C 124.5 135.738281 124.882812 134.339844 124.363281 132.800781 C 123.882812 131.375 122.867188 130.523438 122.367188 130.113281 C 118.027344 126.554688 113.207031 123.480469 113.207031 123.480469 C 106.851562 119.425781 106.46875 119.007812 106.066406 118.375 C 105.695312 117.796875 104.867188 116.351562 104.046875 116.472656 C 103.429688 116.566406 103.105469 117.488281 103.011719 117.734375 C 101.773438 121.011719 96.824219 123.667969 92.265625 130.519531 C 88.523438 136.136719 88.878906 138.824219 85.203125 140.796875 C 83.84375 141.523438 83.339844 141.398438 80.714844 142.152344 C 78.390625 142.816406 76.476562 143.570312 69.234375 147.21875 C 61.890625 150.917969 58.214844 152.769531 56.105469 154.273438 C 52.550781 156.808594 49.953125 159.347656 48.273438 161.15625 C 48.769531 161.546875 50.132812 162.664062 49.867188 163.316406 C 49.796875 163.488281 49.644531 163.5625 49.007812 163.914062 C 48.519531 164.183594 48.050781 164.488281 47.546875 164.734375 C 46.582031 165.210938 45.058594 166.960938 44.035156 168.757812 C 42.128906 172.097656 41.882812 175.683594 41.847656 177.21875 C 41.953125 178.152344 41.597656 179.0625 40.894531 179.566406 C 39.925781 180.257812 38.417969 180.089844 37.453125 179.042969 C 37.070312 178.480469 36.546875 177.644531 36.03125 176.585938 C 34.125 172.648438 34.011719 169.082031 33.976562 166.070312 C 33.90625 160.035156 34.109375 154.554688 34.417969 149.859375 C 34.484375 149.441406 34.632812 148.90625 35.023438 148.742188 C 35.542969 148.523438 35.898438 149.199219 36.96875 149.375 C 38.03125 149.546875 38.761719 149.066406 39.101562 149.484375 C 39.273438 149.699219 39.15625 149.914062 39.363281 150.117188 C 39.683594 150.4375 40.308594 150.277344 40.515625 150.238281 C 42.183594 149.890625 43.335938 151.457031 45.34375 151.386719 C 45.851562 151.367188 46.570312 151.238281 47.886719 150.417969 C 52.023438 147.835938 56.589844 141.847656 61.722656 137.597656 C 66.363281 133.757812 68.796875 131.746094 72.140625 131.386719 C 72.925781 131.304688 74.632812 131.21875 76.15625 130.035156 C 77.621094 128.890625 78.109375 127.355469 78.621094 125.824219 C 80.394531 120.53125 81.28125 117.886719 82.4375 115.722656 C 84.1875 112.449219 85.0625 110.808594 86.761719 109.078125 C 87.191406 108.640625 87.835938 108.03125 88.308594 106.992188 C 89.261719 104.878906 88.683594 102.757812 88.507812 102.023438 C 87.035156 95.90625 88.597656 83.773438 92.195312 80.507812 C 92.578125 80.160156 93.933594 79.050781 94.09375 77.378906 C 94.1875 76.433594 93.859375 75.695312 93.753906 75.433594 C 92.460938 72.3125 91.652344 63.574219 92.546875 56.804688 C 92.707031 55.585938 93.136719 52.820312 92.246094 52.433594 C 91.515625 52.113281 90.269531 53.582031 89.40625 53.078125 C 88.988281 52.835938 89.09375 52.394531 88.65625 52.085938 C 87.902344 51.554688 86.605469 52.183594 86.167969 52.386719 C 82.335938 54.164062 80.515625 52.945312 78.234375 54.769531 C 77.117188 55.664062 77.179688 56.265625 75.394531 60.433594 C 72.820312 66.449219 72.3125 66.089844 71.207031 69.527344 C 69.960938 73.402344 69.097656 76.078125 70.308594 78.621094 C 70.402344 78.816406 71.316406 80.140625 73.152344 82.792969 C 75.289062 85.886719 75.222656 85.683594 75.296875 85.875 C 75.449219 86.273438 75.675781 87 76.34375 87.363281 C 76.808594 87.621094 77.238281 87.5625 77.289062 87.761719 C 77.363281 88.039062 76.683594 88.636719 76.042969 88.757812 C 74.027344 89.132812 72.4375 84.738281 71.058594 85.078125 C 69.953125 85.355469 69.496094 88.546875 69.613281 90.742188 C 69.675781 91.96875 69.996094 94.410156 69.414062 96.011719 C 69.300781 96.320312 69.050781 96.972656 68.566406 97.054688 C 68.304688 97.097656 68.066406 96.964844 67.914062 96.855469 C 67.828125 97.265625 67.527344 97.582031 67.167969 97.652344 C 66.679688 97.742188 66.128906 97.367188 66.019531 96.757812 C 65.929688 96.804688 65.390625 97.078125 64.824219 96.855469 C 64.234375 96.625 63.847656 95.957031 63.925781 95.214844 C 63.785156 95.289062 63.5625 95.371094 63.328125 95.316406 C 61.714844 94.921875 62 88.417969 62.082031 86.519531 Z M 62.082031 86.515625 " fill-opacity="1" fill-rule="nonzero"></path></g></svg> 